HIERARCHY
ROOT Hips
{
	OFFSET -3.958830 18.904000 13.208200
	CHANNELS 6 Xposition Yposition Zposition Zrotation Yrotation Xrotation 
	JOINT LHipJoint
	{
		OFFSET 0.000000 0.000000 0.000000
		CHANNELS 3 Zrotation Yrotation Xrotation
		JOINT LeftUpLeg
		{
			OFFSET 1.800000 -1.400000 0.085000
			CHANNELS 3 Zrotation Yrotation Xrotation
			JOINT LeftLeg
			{
				OFFSET 2.215000 -6.000000 0.000000
				CHANNELS 3 Zrotation Yrotation Xrotation
				JOINT LeftFoot
				{
					OFFSET 2.500000 -6.900000 0.000000
					CHANNELS 3 Zrotation Yrotation Xrotation
					JOINT LeftToeBase
					{
						OFFSET 0.200000 -0.500000 1.950000
						CHANNELS 3 Zrotation Yrotation Xrotation
						End Site
						{
							OFFSET 0.000000 0.000000 0.000000
						}
					}
				}
			}
		}
	}
	JOINT RHipJoint
	{
		OFFSET 0.000000 0.000000 0.000000
		CHANNELS 3 Zrotation Yrotation Xrotation
		JOINT RightUpLeg
		{
			OFFSET -1.800000 -1.400000 0.085000
			CHANNELS 3 Zrotation Yrotation Xrotation
			JOINT RightLeg
			{
				OFFSET -2.215000 -6.000000 0.000000
				CHANNELS 3 Zrotation Yrotation Xrotation
				JOINT RightFoot
				{
					OFFSET -2.500000 -6.900000 0.000000
					CHANNELS 3 Zrotation Yrotation Xrotation
					JOINT RightToeBase
					{
						OFFSET -0.200000 -0.500000 1.950000
						CHANNELS 3 Zrotation Yrotation Xrotation
						End Site
						{
							OFFSET 0.000000 0.000000 0.000000
						}
					}
				}
			}
		}
	}
	JOINT LowerBack
	{
		OFFSET 0.000000 0.000000 0.000000
		CHANNELS 3 Zrotation Yrotation Xrotation
		JOINT Spine
		{
			OFFSET -0.087000 1.940000 -0.288900
			CHANNELS 3 Zrotation Yrotation Xrotation
			JOINT Spine1
			{
				OFFSET 0.000000 1.950000 0.060000
				CHANNELS 3 Zrotation Yrotation Xrotation
				JOINT Neck
				{
					OFFSET 0.000000 0.000000 0.000000
					CHANNELS 3 Zrotation Yrotation Xrotation
					JOINT Neck1
					{
						OFFSET 0.000000 1.600000 0.340000
						CHANNELS 3 Zrotation Yrotation Xrotation
						JOINT Head
						{
							OFFSET 0.000000 1.667000 -0.240000
							CHANNELS 3 Zrotation Yrotation Xrotation
							End Site
							{
								OFFSET 0.000000 0.000000 0.000000
							}
						}
					}
				}
				JOINT LeftShoulder
				{
					OFFSET 0.000000 0.000000 0.000000
					CHANNELS 3 Zrotation Yrotation Xrotation
					JOINT LeftArm
					{
						OFFSET 2.700000 1.550000 -0.730000
						CHANNELS 3 Zrotation Yrotation Xrotation
						JOINT LeftForeArm
						{
							OFFSET 5.450000 0.000000 0.000000
							CHANNELS 3 Zrotation Yrotation Xrotation
							JOINT LeftHand
							{
								OFFSET 3.450000 0.000000 0.000000
								CHANNELS 3 Zrotation Yrotation Xrotation
								JOINT LeftHandIndex1
								{
									OFFSET 0.750000 0.000000 0.000000
									CHANNELS 3 Zrotation Yrotation Xrotation
									End Site
									{
										OFFSET 0.000000 0.000000 0.000000
									}
								}
							}
						}
					}
				}
				JOINT RightShoulder
				{
					OFFSET 0.000000 0.000000 0.000000
					CHANNELS 3 Zrotation Yrotation Xrotation
					JOINT RightArm
					{
						OFFSET -2.700000 1.550000 -0.730000
						CHANNELS 3 Zrotation Yrotation Xrotation
						JOINT RightForeArm
						{
							OFFSET -5.450000 0.000000 0.000000
							CHANNELS 3 Zrotation Yrotation Xrotation
							JOINT RightHand
							{
								OFFSET -3.450000 0.000000 0.000000
								CHANNELS 3 Zrotation Yrotation Xrotation
								JOINT RightHandIndex1
								{
									OFFSET -0.750000 0.000000 0.000000
									CHANNELS 3 Zrotation Yrotation Xrotation
									End Site
									{
										OFFSET 0.000000 0.000000 0.000000
									}
								}
							}
						}
					}
				}
			}
		}
	}
}
MOTION
Frames: 9
Frame Time: 0.016667
-0.932440 18.183900 -0.439290 -0.280310 8.914446 6.952620 -15.019466 13.286639 3.001697 3.620329 -2.002325 -15.869041 -6.337297 4.558767 8.226005 -0.380119 3.338582 3.408484 -0.193130 -0.344590 -0.089690 18.366430 -10.809896 2.712246 -6.897221 1.046529 -16.596699 5.972083 -3.948135 7.851163 0.103555 -2.723998 3.399929 -0.126370 0.309460 0.103880 -4.117411 -1.915427 -7.311879 13.113134 -1.611018 8.700150 -5.192262 -0.681557 8.036515 2.470016 -3.586955 -9.791239 -10.851463 7.645958 44.493133 -2.805110 6.422040 3.731950 -10.794951 -5.107541 2.469986 -49.017371 -9.434015 -1.130968 -47.535503 -14.563219 3.634767 -3.949617 3.165087 0.214160 0.200430 -0.117550 -0.047340 5.649533 6.820534 6.204155 51.846896 1.085074 -8.418448 53.401816 19.955090 4.604334 2.391550 -1.572510 -0.244520 0.144230 0.263270 -0.092720 
-0.911110 18.180800 -0.440870 0.091268 8.788488 7.062386 -14.992139 13.258120 3.012287 3.133951 -2.022310 -15.684724 -6.456585 4.557822 8.156905 -0.377346 3.333575 3.412113 -0.203030 -0.353990 -0.095040 18.395936 -10.828174 2.699683 -7.292593 0.978370 -16.601917 5.602817 -3.863863 7.500390 0.110595 -2.717619 3.403765 -0.130860 0.311740 0.102310 -4.200542 -1.848462 -7.304858 13.952332 -1.706741 8.672658 -5.639935 -0.737099 7.923616 2.566248 -3.742320 -9.785473 -11.168626 7.966591 44.680774 -3.040490 6.784230 4.089920 -11.258112 -5.085224 2.445306 -48.766997 -9.137562 -1.217845 -47.564945 -14.533918 3.616853 -3.958006 3.162570 0.209670 0.206000 -0.122610 -0.051930 5.846872 6.822541 6.186971 51.654101 1.093433 -8.347215 53.356671 19.825391 4.570909 2.395123 -1.570747 -0.247210 0.140980 0.268390 -0.094190 
-0.884870 18.181020 -0.443310 0.686645 8.870744 7.033998 -14.951074 13.229074 3.045546 2.722070 -2.015492 -15.199759 -7.045869 4.615467 7.874549 -0.352719 3.357105 3.403621 -0.181030 -0.327500 -0.087600 18.436543 -10.856838 2.663793 -7.856598 0.811758 -16.325640 4.879121 -3.750579 7.126294 0.091021 -2.702552 3.411054 -0.126710 0.294440 0.102780 -4.325215 -1.789464 -7.313586 15.452345 -1.982476 8.883049 -5.878218 -0.934247 7.838291 2.570880 -4.172410 -9.968969 -12.427370 8.261921 45.898549 -2.908960 6.365040 4.023480 -11.899924 -5.272068 2.531099 -49.034655 -8.824091 -1.432193 -46.930858 -15.024509 3.698271 -3.934083 3.153822 0.222540 0.185550 -0.100960 -0.042030 6.398438 7.221048 6.335106 50.715541 0.806732 -8.437324 53.507068 19.913021 4.599559 2.405651 -1.561190 -0.231360 0.142670 0.254790 -0.087100 
-0.856040 18.176370 -0.452320 1.305463 8.728681 7.106900 -14.894145 13.133454 3.068137 1.958432 -1.982978 -14.511824 -7.412660 4.527256 7.016307 -0.339953 3.321970 3.411304 -0.152530 -0.295220 -0.063470 18.502491 -10.871989 2.659947 -8.714522 0.668492 -16.006398 4.639716 -3.652453 6.139594 0.056713 -2.722008 3.396042 -0.119220 0.256200 0.106690 -4.504221 -1.617620 -7.323896 17.484652 -2.086729 8.919574 -6.574648 -0.930838 7.972051 2.786756 -4.345881 -10.152074 -13.247553 8.304210 47.600209 -3.372650 6.122580 3.752350 -12.365026 -5.514255 2.517133 -48.946046 -9.030979 -1.328136 -46.287081 -15.521646 3.878580 -3.907979 3.145123 0.241190 0.159510 -0.068970 -0.041190 6.315334 7.444362 6.573078 50.299162 0.474644 -8.598365 53.916872 20.296356 4.769177 2.408474 -1.561586 -0.211800 0.134220 0.238090 -0.090030 
-0.822490 18.165810 -0.450680 1.730094 8.789143 7.166624 -14.832827 13.044413 3.060236 1.268466 -1.961538 -14.050658 -7.514271 4.481525 6.707880 -0.326921 3.273942 3.420131 -0.131920 -0.271710 -0.023900 18.573297 -10.880817 2.668637 -9.715619 0.537707 -15.560723 4.921949 -3.670449 5.265675 0.016389 -2.785315 3.367701 -0.121720 0.205480 0.103720 -4.700565 -1.449849 -7.307252 20.103186 -2.400875 8.694003 -7.662855 -1.129661 8.193218 3.274701 -4.413579 -10.461033 -13.836136 8.566193 49.402223 -4.574790 6.711570 3.635760 -12.507994 -5.846969 2.617537 -49.230894 -9.120780 -1.317346 -45.070605 -15.385536 3.703041 -3.882622 3.119324 0.259870 0.133970 -0.033950 -0.051510 5.372528 7.585021 6.887544 50.954538 0.223199 -8.943754 54.658210 20.660126 4.949148 2.410839 -1.565741 -0.193970 0.120690 0.217340 -0.103400 
-0.797220 18.150860 -0.443380 2.429587 8.971825 7.404946 -14.795922 12.950278 3.077678 0.380360 -1.981025 -13.706384 -7.757183 4.422012 6.176387 -0.315690 3.233550 3.439868 -0.118870 -0.257690 0.008520 18.621982 -10.871011 2.665864 -10.818698 0.428957 -15.413122 5.251600 -3.712179 4.699434 -0.011888 -2.848375 3.342090 -0.121820 0.175360 0.096630 -4.829841 -1.322345 -7.297520 22.037383 -2.722799 8.476973 -8.638849 -1.368514 8.255629 3.704426 -4.393517 -10.541104 -14.022835 8.839350 50.562168 -5.691350 7.503020 3.699020 -12.671967 -5.774785 2.545295 -49.275441 -9.119005 -1.278454 -44.528442 -15.065319 3.561716 -3.867652 3.097642 0.270520 0.121790 -0.012720 -0.053270 4.591089 7.273364 6.983631 51.612992 0.048907 -9.139804 55.446005 20.848745 5.120773 2.408285 -1.576298 -0.189550 0.117840 0.196810 -0.115220 
-0.770370 18.142520 -0.435280 3.150355 8.841986 7.464919 -14.775059 12.910351 3.110651 -0.624201 -1.937787 -13.111322 -7.755280 4.343763 5.670556 -0.315000 3.198811 3.441926 -0.110020 -0.256450 0.045490 18.648264 -10.876051 2.641127 -11.728386 0.286661 -15.334914 5.109575 -3.747900 4.548178 -0.031720 -2.876541 3.312651 -0.127280 0.129400 0.098910 -4.898655 -1.270176 -7.297279 23.617842 -3.024092 8.516413 -9.414018 -1.569650 8.216111 4.209035 -4.305404 -10.708669 -14.126828 9.283284 51.984518 -6.814320 8.509380 3.703300 -12.898075 -5.776434 2.512493 -49.372853 -9.032008 -1.305687 -43.932538 -14.856779 3.419342 -3.852348 3.086700 0.292320 0.103000 0.012820 -0.072230 3.762982 7.045520 7.135579 52.247105 -0.154081 -9.378408 56.486988 21.240960 5.435083 2.405393 -1.589199 -0.183630 0.095770 0.188100 -0.138120 
-0.751910 18.137870 -0.426140 3.656406 8.788505 7.560382 -14.746981 12.855896 3.106525 -1.343362 -1.912844 -12.726139 -7.586804 4.296970 5.545806 -0.336287 3.192352 3.436616 -0.116800 -0.285050 0.080130 18.686375 -10.877809 2.634669 -12.477622 0.199989 -15.271779 5.255859 -3.812625 4.323620 -0.044848 -2.924651 3.270148 -0.139560 0.102250 0.106460 -4.993049 -1.177944 -7.264617 25.578690 -3.452485 8.336248 -10.553599 -1.884118 8.280421 4.696903 -4.313587 -10.787908 -14.367442 9.891648 53.126448 -7.951360 9.603480 3.883770 -13.286495 -5.855706 2.447077 -49.062041 -9.045291 -1.215438 -43.323249 -14.434254 3.208188 -3.858137 3.070422 0.315810 0.096160 0.023880 -0.099130 3.115691 6.841444 7.221783 52.787467 -0.121244 -9.469314 57.694221 21.682931 5.842697 2.399313 -1.601068 -0.193210 0.078650 0.196440 -0.166610 
-0.737560 18.138220 -0.413600 4.122233 8.543351 7.701221 -14.728219 12.824049 3.105267 -2.044292 -1.891449 -12.548651 -7.331016 4.269981 5.665083 -0.324613 3.149296 3.450114 -0.130370 -0.298100 0.082690 18.709264 -10.879355 2.635798 -13.149435 0.136735 -15.425592 5.634824 -3.914268 4.351832 -0.047518 -2.962657 3.252036 -0.155510 0.087500 0.100670 -5.049420 -1.116708 -7.240548 27.212831 -3.709277 8.050076 -11.297070 -2.039366 8.413926 5.103049 -4.297765 -11.160711 -14.680926 10.233031 54.269616 -8.644160 10.165190 4.711500 -13.041445 -6.311162 2.652629 -49.467133 -9.178246 -1.148285 -42.498609 -13.852326 2.918976 -3.853453 3.055695 0.313690 0.093110 0.029270 -0.108020 2.058750 7.181283 7.586996 53.520068 -0.310521 -9.794296 58.891190 22.337224 6.243931 2.396502 -1.618331 -0.188910 0.067460 0.194990 -0.170120 
